HIERARCHY
ROOT Hips
{
  OFFSET 26.6806 93.7098 106.302
  CHANNELS 6 Xposition Yposition Zposition Zrotation Xrotation Yrotation
  JOINT ToSpine
  {
    OFFSET -2.69724 7.43032 -0.144315
    CHANNELS 3 Zrotation Xrotation Yrotation
    JOINT Spine
    {
      OFFSET -0.0310711 10.7595 1.96963
      CHANNELS 3 Zrotation Xrotation Yrotation
      JOINT Spine1
      {
        OFFSET 13.1342 3.43533 0.764692
        CHANNELS 3 Zrotation Xrotation Yrotation
        JOINT Neck
        {
          OFFSET 29.8703 7.82586 -0.130764
          CHANNELS 3 Zrotation Xrotation Yrotation
          JOINT Head
          {
            OFFSET 9.52751 0.295786 -0.907742
            CHANNELS 3 Zrotation Xrotation Yrotation
            End Site
            {
              OFFSET 16.4037 0.713936 2.7358
            }
          }
        }
        JOINT LeftShoulder
        {
          OFFSET 27.5574 4.95586 2.47156
          CHANNELS 3 Zrotation Xrotation Yrotation
          JOINT LeftArm
          {
            OFFSET 1.20734 -0.998971 20.1238
            CHANNELS 3 Zrotation Xrotation Yrotation
            JOINT LeftForeArm
            {
              OFFSET 26.8049 -0.0536703 -0.155908
              CHANNELS 3 Zrotation Xrotation Yrotation
              JOINT LeftHand
              {
                OFFSET 26.6817 0 0.320147
                CHANNELS 3 Zrotation Xrotation Yrotation
                End Site
                {
                  OFFSET 18.6119 0 0.382219
                }
              }
            }
          }
        }
        JOINT RightShoulder
        {
          OFFSET 27.5927 4.71444 -2.65209
          CHANNELS 3 Zrotation Xrotation Yrotation
          JOINT RightArm
          {
            OFFSET 2.83739 -1.17114 -18.7564
            CHANNELS 3 Zrotation Xrotation Yrotation
            JOINT RightForeArm
            {
              OFFSET 28.839 -0.0548439 1.22491
              CHANNELS 3 Zrotation Xrotation Yrotation
              JOINT RightHand
              {
                OFFSET 26.5114 0 -0.101894
                CHANNELS 3 Zrotation Xrotation Yrotation
                End Site
                {
                  OFFSET 18.2168 0 0
                }
              }
            }
          }
        }
      }
    }
  }
  JOINT LeftUpLeg
  {
    OFFSET -4.76168 -1.9167 -10.2353
    CHANNELS 3 Zrotation Xrotation Yrotation
    JOINT LeftLeg
    {
      OFFSET 2.55951 -42.0585 -8.02213
      CHANNELS 3 Zrotation Xrotation Yrotation
      JOINT LeftFoot
      {
        OFFSET 3.16357 -42.5282 -3.95426
        CHANNELS 3 Zrotation Xrotation Yrotation
        JOINT LeftToeBase
        {
          OFFSET 0.346054 -6.02161 12.8035
          CHANNELS 3 Zrotation Xrotation Yrotation
          End Site
          {
            OFFSET 0.134235 -1.35082 5.13018
          }
        }
      }
    }
  }
  JOINT RightUpLeg
  {
    OFFSET -4.94151 -1.41743 10.6446
    CHANNELS 3 Zrotation Xrotation Yrotation
    JOINT RightLeg
    {
      OFFSET -2.56294 -42.0364 -7.94377
      CHANNELS 3 Zrotation Xrotation Yrotation
      JOINT RightFoot
      {
        OFFSET -3.0952 -42.555 -4.02241
        CHANNELS 3 Zrotation Xrotation Yrotation
        JOINT RightToeBase
        {
          OFFSET -0.0828122 -6.13587 12.8035
          CHANNELS 3 Zrotation Xrotation Yrotation
          End Site
          {
            OFFSET -0.131328 -1.35082 5.13018
          }
        }
      }
    }
  }
}
MOTION
Frames:	17
Frame Time:	0.0333333
24.428 90.6654 128.455 71.5385 -20.274 -10.5812 -70.1915 0 88.8779 93.9036 70.1783 -7.83838 -1.17129 18.3464 6.92352 -132.768 33.5948 167.886 -174.027 74.407 -161.945 0.946116 -11.145 -19.8804 -73.344 37.4001 -143.326 6.93083 -1.84515 -103.951 0.420958 0.000574158 0.358661 -0.823326 5.6396 29.4591 -132.458 -16.2851 90.3689 13.6646 5.82178 112.262 0.586759 0.000330524 0.0646655 -48.0397 17.346 93.4616 -2.85691 38.8263 -10.4974 -2.58983 -8.6297 -0.637556 4.48342 -11.88 14.4199 -36.4426 -13.8995 85.7974 3.70188 52.8913 2.66267 -2.46794 -19.3667 1.57821 2.3864 -1.61646 -14.856 
24.8078 90.7453 127.177 71.4664 -21.1046 -10.277 -70.1915 0 88.8779 92.2272 70.2954 -5.65335 -0.590394 18.4635 6.95344 -133.761 32.6083 168.93 -172.162 73.2426 -164.36 0.971947 -10.9136 -19.5984 -74.0976 37.2619 -143.667 7.61956 -1.95272 -103.437 0.420958 0.000574158 0.358661 -0.758872 5.79046 27.8903 -134.135 -16.667 91.3354 16.3855 5.87602 108.856 0.586759 0.000330524 0.0646655 -48.9375 19.0306 93.8905 -2.28638 39.4131 -4.4694 -1.58794 -5.66109 -0.404425 3.24901 -9.99402 13.7887 -36.7883 -13.3875 86.874 3.46184 51.6498 2.4589 -1.9389 -18.2798 1.53097 2.34791 -1.89608 -14.6174 
25.3102 90.8397 125.578 71.1974 -22.0028 -10.0851 -70.1915 0 88.8779 89.9905 70.4231 -3.47544 -0.269393 18.3346 7.82563 -133.361 32.6368 169.003 -173.47 73.2597 -163.001 1.00377 -10.614 -19.1046 -74.4994 37.2531 -144.576 8.45806 -2.01707 -102.506 0.420958 0.000574158 0.358661 -0.622258 5.64361 25.8206 -134.913 -17.8162 92.341 16.6575 4.92148 105.678 0.586759 0.000330524 0.0646655 -50.2043 20.2035 94.1898 -1.66529 38.7269 0.071609 -3.02355 -2.24923 0.0659163 1.50357 -5.46394 7.30469 -37.0529 -12.7948 88.3306 3.0358 49.9561 1.46464 -1.66752 -16.7302 1.43512 2.102 -2.66159 -12.8494 
25.8458 91.0462 123.727 70.8885 -22.7015 -9.80786 -70.1915 0 88.8779 88.8511 70.3167 -1.81187 -0.227518 18.2031 7.90531 -132.568 32.4814 168.047 -171.787 73.3252 -164.469 1.01829 -10.4746 -18.6044 -74.9145 36.9823 -145.124 9.07589 -2.02459 -101.689 0.420958 0.000574158 0.358661 -0.589957 5.68494 25.1184 -135.382 -17.5496 93.932 16.9372 3.96021 102.477 0.586759 0.000330524 0.0646655 -51.6126 20.0643 93.2131 -1.99848 37.3444 -3.40872 -5.81973 -1.93806 0.411466 4.2289 -10.4728 7.38389 -37.636 -12.8345 88.9858 2.66653 47.5356 1.04241 -1.34279 -14.761 1.30862 1.86132 -3.33477 -11.0262 
26.5329 91.2741 121.569 70.544 -23.1864 -9.82301 -70.1915 0 88.8779 85.9497 70.2173 1.56392 0.604719 18.1742 7.71657 -132.368 32.5975 167.571 -171.499 73.5406 -165.109 1.00979 -10.5742 -18.4356 -75.2253 36.4245 -145.979 10.3989 -2.19196 -101.017 0.420958 0.000574158 0.358661 -0.551276 5.99885 23.7535 -136.43 -17.6173 93.8646 19.4271 3.72467 100.158 0.586759 0.000330524 0.0646655 -52.6194 19.0637 92.9257 -2.15202 36.2391 -5.39611 -5.63597 -2.96615 0.262341 5.83738 -13.2929 7.06556 -38.2188 -13.5953 89.4624 2.1434 44.7684 -0.306433 -1.02019 -12.4719 1.13492 1.25685 -3.75525 -6.21207 
27.1721 91.6001 119.171 70.1795 -24.0589 -10.3062 -70.1915 0 88.8779 85.0775 70.5473 2.86967 0.552219 18.6967 7.18072 -130.634 32.4119 165.221 -168.111 73.8923 -167.684 0.975691 -10.9949 -17.9299 -75.0435 35.9051 -146.934 11.5886 -2.31584 -100.41 0.420958 0.000574158 0.358661 -0.525535 5.60981 24.1521 -137.108 -17.0042 94.4071 19.8631 3.22198 98.5751 0.586759 0.000330524 0.0646655 -53.3109 18.0291 94.762 -2.15859 35.72 -5.78862 -5.48858 -4.65275 0.0300445 6.36471 -14.2011 6.77231 -38.7354 -14.2943 90.8496 1.81784 41.5213 -0.968414 0.168018 -9.57105 0.896726 1.05133 -4.43594 -4.31688 
27.6487 92.0194 116.718 69.8035 -25.3147 -11.0992 -70.1915 0 88.8779 85.1492 71.0291 2.95632 0.267515 19.2534 6.77793 -129.232 32.1556 163.584 -164.311 74.0068 -170.626 0.951842 -11.3269 -17.5311 -74.7238 35.6893 -147.631 12.4737 -2.37073 -99.8685 0.420958 0.000574158 0.358661 -0.595491 5.78725 24.9723 -137.604 -16.1563 94.9011 18.8099 2.80846 97.9189 0.586759 0.000330524 0.0646655 -53.9803 17.1151 98.9858 -2.08162 34.9491 -5.42594 -4.87788 -5.7208 -0.14986 6.15091 -13.8784 7.40603 -39.3856 -14.9927 91.6966 1.09108 37.4088 -0.776913 -2.19588 -4.82182 0.712268 1.19959 -7.92175 -2.55424 
28.0497 92.4675 114.203 69.5656 -25.8495 -11.6572 -70.1915 0 88.8779 83.4723 70.9774 4.21224 1.18751 19.0276 7.15419 -131.016 32.3493 165.293 -166.707 73.7682 -169.118 0.956874 -11.2342 -17.7863 -75.0737 35.4234 -147.796 13.2988 -2.51889 -99.8122 0.420958 0.000574158 0.358661 -0.566331 6.11884 23.7541 -138.67 -17.6746 94.3221 19.618 2.8879 97.7811 0.586759 0.000330524 0.0646655 -53.9879 15.745 101.421 -2.01459 34.6042 -4.93754 -2.31182 -6.9429 -0.49226 5.26161 -12.2752 7.14243 -40.1637 -16.6674 89.2036 -0.475043 33.3315 3.01928 -3.1563 -0.935181 0.59389 1.34875 -8.74836 -3.41642 
28.2803 92.8633 111.81 69.6229 -26.4003 -11.9161 -70.1915 0 88.8779 85.3103 71.2227 1.86255 0.803185 19.0753 7.46005 -130.256 32.4009 163.664 -163.698 74.1324 -171.376 0.932979 -11.5357 -17.6789 -74.9958 35.0576 -147.782 13.8052 -2.66365 -99.9867 0.420958 0.000574158 0.358661 -0.574349 5.79691 24.5959 -139.084 -17.6471 94.5444 18.6524 2.87453 98.1814 0.586759 0.000330524 0.0646655 -53.7962 14.7152 102.456 -2.22798 35.2989 -6.33154 -4.61033 -9.93648 -0.677867 3.82871 -9.7927 7.50608 -40.843 -18.2342 85.6151 -1.5195 30.058 5.5927 -2.59671 2.10115 0.372569 1.08544 -6.40711 -2.96941 
28.3979 93.0017 109.745 69.7282 -26.9799 -11.7889 -70.1915 0 88.8779 86.8621 71.356 -0.272321 0.442088 18.953 8.17555 -129.52 32.2359 162.981 -163.014 74.155 -171.486 0.922317 -11.6592 -17.7092 -74.6946 34.9199 -147.319 14.331 -2.84585 -100.271 0.420958 0.000574158 0.358661 -0.601608 5.68231 25.3533 -139.053 -18.0655 94.0252 17.4317 3.02272 99.2548 0.586759 0.000330524 0.0646655 -53.1775 14.2465 103.064 -2.54893 36.7515 -8.67623 -4.29072 -10.2889 -0.736154 4.76448 -11.7436 9.7387 -40.958 -19.0959 82.9408 -1.00689 28.8258 4.67419 -3.15512 3.7037 0.370122 0.791961 -4.83424 -1.79898 
28.3911 93.0878 108.139 69.6677 -27.6968 -11.3981 -70.1915 0 88.8779 86.8227 71.5666 -0.238947 0.778158 19.0774 8.48833 -129.63 32.1504 163.014 -163.73 74.0793 -170.896 0.929242 -11.5756 -17.7014 -74.3295 34.8772 -147.144 14.4973 -2.91782 -100.407 0.420958 0.000574158 0.358661 -0.631333 5.63112 26.0271 -139.151 -18.1937 93.1191 17.6083 3.56262 100.79 0.586759 0.000330524 0.0646655 -52.3135 14.0317 103.029 -2.54879 37.9868 -7.68182 -3.28395 -11.7916 -0.944524 4.2331 -10.8368 9.68197 -40.7819 -18.6765 81.6602 0.323639 30.113 2.43201 -1.98479 3.27329 0.21218 0.517264 -4.65225 0.205722 
28.2106 93.1379 106.919 69.5615 -28.5425 -11.1324 -70.1915 0 88.8779 87.8199 71.8513 -1.26916 0.58015 19.2679 8.79035 -130.032 32.2556 163.36 -165.699 74.1292 -169.025 0.95141 -11.2622 -18.1114 -74.09 34.6 -146.44 14.8776 -3.12324 -100.849 0.420958 0.000574158 0.358661 -0.705574 5.79701 26.9135 -138.807 -17.5714 92.4742 17.4023 4.01897 102.307 0.586759 0.000330524 0.0646655 -51.7171 13.5321 102.154 -2.48597 38.7919 -6.4229 -3.3951 -13.4981 -1.13083 3.48357 -9.66356 10.2672 -40.4797 -17.233 81.356 1.2104 32.9318 2.69963 -0.898055 1.26145 0.170761 0.43365 -6.38647 3.06203 
28.065 93.1834 105.98 69.946 -29.2707 -11.3065 -70.1915 0 88.8779 88.9682 72.204 -3.42011 0.361023 19.4955 9.19813 -130.295 32.2338 163.511 -166.264 74.069 -168.615 0.967497 -11.0645 -18.2514 -73.4229 34.7823 -145.745 15.4968 -3.4385 -101.456 0.420958 0.000574158 0.358661 -0.75341 5.74726 27.8953 -138.043 -17.1095 92.0733 16.7698 4.36127 103.854 0.586759 0.000330524 0.0646655 -51.8993 12.8342 102.279 -2.46218 39.1453 -5.92413 -2.77011 -13.5635 -1.14413 3.5135 -9.81419 10.8546 -39.9978 -16.6465 81.3065 1.58423 36.3606 0.773959 -1.8996 -0.19271 0.404812 0.802022 -8.43857 2.37904 
27.9591 93.286 105.322 70.3831 -29.4116 -11.0554 -70.1915 0 88.8779 89.2774 72.2195 -4.09358 0.232781 19.538 9.13806 -129.188 32.1015 163.385 -166.65 74.0577 -167.614 0.937251 -11.3809 -18.463 -72.81 35.1674 -144.275 16.1355 -3.74958 -101.987 0.420958 0.000574158 0.358661 -0.813518 5.74251 28.982 -136.884 -16.6077 91.2239 17.0598 4.90669 105.258 0.586759 0.000330524 0.0646655 -51.9649 12.5069 102.278 -2.49985 39.3863 -6.11392 -2.08232 -13.5665 -1.15088 3.26948 -9.56897 11.7782 -40.196 -16.8257 79.8063 1.6391 37.5266 0.673836 -2.48524 -0.0395871 0.470448 1.00575 -9.4919 1.75815 
27.9965 93.4 104.896 71.0347 -28.898 -10.093 -70.1915 0 88.8779 89.3769 71.9328 -4.11196 0.481046 19.2 9.27857 -129.437 32.3185 163.98 -168.79 74.1464 -165.982 0.934919 -11.3456 -18.9961 -72.0605 35.2524 -143.419 16.4642 -3.92184 -102.276 0.420958 0.000574158 0.358661 -0.88468 5.92041 29.6782 -136.019 -15.4388 90.5051 16.2288 5.06052 106.531 0.586759 0.000330524 0.0646655 -51.9442 12.3432 101.304 -2.46932 39.5488 -5.73763 -1.84055 -13.5328 -1.14967 3.10297 -9.25974 11.5814 -41.6722 -17.198 77.6842 1.48055 35.8058 0.054384 -1.83869 0.551222 0.350822 0.688841 -7.68761 2.3572 
28.0704 93.3837 104.719 71.3083 -28.4788 -9.57182 -70.1915 0 88.8779 87.7973 72.0247 -2.60471 0.774777 19.305 9.28298 -128.892 32.3406 163.027 -168.228 74.4069 -166.526 0.923942 -11.4707 -18.9188 -70.9279 35.7358 -143.705 16.798 -3.97209 -102.171 0.420958 0.000574158 0.358661 -0.874579 5.59722 30.5186 -135.591 -13.7051 89.931 15.1756 5.02451 107.554 0.586759 0.000330524 0.0646655 -51.625 12.3509 100.734 -2.5168 40.1227 -5.72772 -1.69018 -13.7761 -1.17479 3.16368 -9.33746 11.4513 -42.6902 -17.3539 77.111 1.61666 34.4016 0.698114 -0.403347 0.635146 0.150708 0.773131 -7.18551 0.853022 
28.0861 93.3377 104.825 71.569 -28.2778 -9.1401 -70.1915 0 88.8779 85.2792 72.1115 -0.027193 1.54184 19.5341 8.9375 -128.534 32.2159 161.965 -166.094 74.5194 -168.402 0.946256 -11.2294 -18.9595 -70.1037 35.5852 -144.231 16.62 -3.85456 -101.945 0.420958 0.000574158 0.358661 -0.864228 5.30943 31.3323 -135.298 -12.7149 89.7517 14.4742 4.97862 108.23 0.586759 0.000330524 0.0646655 -51.571 12.6593 100.526 -2.61057 40.5361 -6.2556 -1.41363 -13.797 -1.17875 3.22954 -9.58385 12.2419 -43.6152 -17.088 77.0566 1.55118 33.6624 -0.021741 -0.235306 0.900121 0.10824 0.618359 -7.69012 3.13352 
